<?xml version="1.0" encoding="utf-8"?>
<svg viewBox="171 607.7261 338.8795 269.5641" xmlns="http://www.w3.org/2000/svg">
    <path fill="#4b62ad" d="M370.2 876.8c-2.9-.4-6.6-1.4-8.1-2.2-2.8-1.5-9.1-8-9.1-9.4 0-.5-.9-1.8-2-3-3.5-3.7-8.9-3-20.5 2.7-12.5 6.2-17.4 7.4-27.2 6.9-13.4-.6-23.8-7.2-28.9-18.1-7.9-17.2 3.2-46.6 22.2-58.7 19.1-12.1 46.7-7.5 50.9 8.5.5 1.7.9 9.8.9 18 .1 13.7.3 15.4 2.5 19.8 2.4 5 7 8.7 10.7 8.7 7.7 0 32.2-25.9 30-31.7-.7-1.7-3.9-1.5-11.9.8-4.6 1.3-4.8 1.3-7.5-1.4-2.5-2.6-2.7-3.2-2.7-12.1 0-9.4 0-9.5 3.4-13 2.9-3 4.7-3.8 14.5-6.1 6.1-1.4 13-3.1 15.4-3.7l4.2-1.1-3.3-4.1c-4.1-4.9-5.6-7.7-7.7-13.5-.9-2.4-2.4-4.9-3.3-5.5-1.5-.9-2.4-.4-5.5 3.2-2 2.3-4.6 4.2-5.6 4.2-1.1 0-4.8-2.9-8.2-6.5-5.9-6.2-10.4-8.4-10.4-5.1 0 2.3-4 6.6-8.1 8.7-4.6 2.3-18.8 2.8-26 .9-19.7-5.3-32.5-22.2-24.3-32 4.3-5.1 7.9-6.4 17.4-6.5 9.6 0 14.5 1.8 21.7 8 4.6 3.9 6.9 4.4 7.7 1.7.9-2.8 6-5.2 10.9-5.2 5.7 0 10.2 3 14.4 9.5 1.8 2.8 4.2 6.2 5.3 7.8 3.7 4.8 10.5 4.9 13 .2 1.8-3.4 5.5-3.2 11.6.6 18.7 12 25.9 18 29.3 24.8 2.3 4.4 2.7 11 1 14.4-3 5.7-9.6 10.7-14.4 10.7-3 0-3.1.9-.5 4.3 2.4 3 5 8.9 5 11.3 0 .9-1.6 3.2-3.5 5.1-2.7 2.7-4.1 3.4-6 3.1-1.4-.3-2.5-.5-2.5-.4 0 .1.9 2.7 2 5.9 2.6 7.4 2.6 15.7-.2 23.7-1.7 5.1-3.4 7.7-8.3 12.7-10.3 10.5-24 15.2-38.3 13.1zm-186.7-34.2c-9.3-3.2-12.5-6.8-12.5-13.7 0-6.2 3-12.3 7.3-14.9 4.4-2.7 14.4-2.7 23.3.1 6.8 2.1 8.5 3.4 17.2 13.2 2.1 2.3 4.1 2.2 10.8-.8 3.1-1.4 6.6-2.5 7.8-2.5 3.6.1 9.9 3.5 14.9 8.2 5.4 5.1 6.1 7.4 2 6.4-1.6-.4-6.2-.9-10.3-1.2-6.3-.5-9.9-.1-22.8 3-21.1 4.9-28.7 5.4-37.7 2.2zm257.3-76.7c-2.3-1.3-2.3-4.1.2-8.1 1.1-1.8 2-3.9 2-4.6 0-.7 1-3.6 2.1-6.3 2.3-5.3 4.9-7.2 11.2-8.4 2.5-.5 5.2-2.2 8.2-5.1 3.7-3.7 5.1-4.4 8.2-4.4 4 0 8.3-2.2 8.3-4.3 0-2 7.7-9.5 11.9-11.7 5.1-2.6 12-2.6 14.9-.1 3 2.5 2.8 6.3-.9 13.1-4.6 8.7-7.2 10.7-15.9 12.4-7.4 1.4-10 3.1-10 6.7 0 3.1-2 6.3-5.7 9.2-3 2.2-4.6 2.7-9.5 2.7-5.2 0-6.2.3-9.7 3.5-3.7 3.4-9.7 6.5-12.3 6.5-.7 0-2.1-.5-3-1.1zm-28.3-37.7c-3.7-.5-4.5-1.7-3.8-5.7 1.5-7.7 6-12.9 12.3-14.2 2.7-.5 3-.9 3-4.7 0-9.7 4.4-17.8 10.8-19.7l3.7-1.1v-8.1c0-8.8 1.4-12.9 7.7-23.3 7.4-12.3 17.6-10.9 18.6 2.5.7 9.7-3.6 17.3-15.2 26.8-2.3 1.9-2.6 2.7-2.1 5.6.6 2.8.2 3.9-1.6 5.6-1.3 1.1-2.6 2.1-3.1 2.1-.4 0-2.3 1.3-4.1 3-3 2.6-3.7 4.1-5.2 11.7-1 4.9-2.7 10.3-3.8 12.1-2.9 5-10.7 8.3-17.2 7.4zM299.7 711c-3.9-3.4-8.4-12.6-9.8-20.2-.5-2.9-1.4-7.8-1.9-10.9-.8-4-2.3-7.1-5.5-11.5-4.4-5.7-4.5-6.1-4.3-12.5.2-6.2 0-6.9-3.3-11-2-2.4-4.2-5.9-4.9-7.7-1.9-4.9-1.7-14.1.3-17.9 1.6-2.9 2.1-3.2 5.7-2.9 6.7.6 10.4 5.3 11.5 14.7 1.1 10.3 1.5 11.5 4.6 14.8 4.1 4.6 4.9 7 4.9 15.2 0 8.4 1.1 10.7 8 17.4 11.3 10.9 13.2 24 4.7 33.3-2.8 3-6 2.8-10-.8zm61.8-3.4c-5.7-5.7-5.5-17.9.4-31.4 3.2-7.2 3.2-7.3 2-15.2l-1.2-7.9 3.8-6.2 3.9-6.3-1.2-7.7c-1.7-11.5 1.2-18.5 9.2-22.8 7-3.7 8.5-3.3 11.8 2.8 5 9.5 3.1 20.2-4.8 27.5-2.8 2.6-3.5 3.8-2.7 4.8 3.3 4.3 1.9 9.6-4.5 17-6.3 7.3-6.9 10.3-3.8 19.3 4.2 12.1 3.1 21.6-2.9 26.3-3.6 2.9-7 2.8-10-.2z" transform="matrix(0.9999999999999999, 0, 0, 0.9999999999999999, -2.842170943040401e-14, 0)"/>
</svg>