<?xml version="1.0" encoding="utf-8"?>
<svg xmlns="http://www.w3.org/2000/svg" width="1400" height="980" version="1.0">
  <path fill="#fee501" d="M725 879.4c-7-1.4-15.6-5-20.8-8.9-6.7-5-10.1-8.5-20.5-21.5-9.8-12.3-15.7-17.4-32.4-28.5-2.4-1.5-4.3-3.1-4.3-3.5 0-.4.9-1.5 2-2.5 1.7-1.5 3.1-1.7 9.7-1.1 4.3.3 9.8 1.1 12.3 1.6 16.4 3.4 24.6 2.7 26.4-2.2.7-2 .2-3.3-2.8-7.2-5.1-6.7-5-7 4.2-14.5 4.5-3.8 5.2-4.7 5.2-7.9 0-5.1-4.3-8.3-15.4-11.7-11.7-3.6-15.5-7.7-14.2-15 1.6-8.4 26.7-23.5 50.8-30.7 15.6-4.6 26.7-6 45.8-5.5 24 .5 41 5 52 13.8 4.9 3.7 9 12.1 9 18.1 0 5.3-1.3 8.9-4.7 13.1-3.6 4.4-3.2 10.3 1.2 15.9 4.3 5.7 8.9 13.5 9.9 16.8 1.9 6.2 2.4 19.6 1 27.5-1.4 8.5-6.3 21.9-10.3 28.5-.6.8-2.5 4.6-4.3 8.4-4.6 9.5-6.6 10.4-19.6 8.8-5.3-.7-12-1.2-14.8-1.2-6.4 0-24.5 2.6-30.4 4.4-12.7 3.9-28.8 6.2-35 5zm28.8-56.1c1.6-3.2 4.6-10.9 6.6-17.1 4.6-13.7 6.2-16.3 17.6-27.2 9.4-9 11.5-12.9 8.7-15.7-.9-.9-2.8-1.6-4.4-1.5-4.1.1-14.2 2.9-16.9 4.7-1.3.8-2.9 1.5-3.5 1.5-.7 0-2 .7-2.9 1.5-2.2 2-13.7 6.1-19.6 6.9-2.7.4-6 1.4-7.3 2.3-2.1 1.3-2.3 2-1.8 6.2.3 2.5 2.6 12.5 5.1 22.1 5 19 6.7 22 12.6 22 2.6 0 3.3-.7 5.8-5.7zm-146.3-4c-3.3-.7-9.8-3.6-12.3-5.4-4.2-3.2-6.5-7-8.3-13.7-1.6-6.1-1.6-6.8-.1-9.4 2.3-3.9 6.5-5.3 15.7-5.2 10.4.2 21.3 4.3 36.3 13.7 5.2 3.3 5.5 6.6 1.4 12.3-4.6 6.3-10.1 8.4-21.3 8.3-5.2-.1-10.3-.3-11.4-.6zm63-81.4c-6-3.5-14.5-15.3-14.5-20.4 0-4 3.6-7.5 7.6-7.5 3.4 0 10.3 4.2 14.8 8.9 2.3 2.4 3 4.2 3.4 8.4.4 4.6.1 5.7-1.9 8-2.8 3.1-6.6 4.1-9.4 2.6zm152.8-13.6c-2.1-.8-1.6-13 .6-18 2.3-4.9 5.1-6.1 8.5-3.6 6.8 4.9 6.6 12.3-.5 18.7-3.7 3.4-5.8 4.1-8.6 2.9zM707 704.8c-.7-1.8-2.8-6.4-4.6-10.2-5.1-10.4-4.5-16.6 1.7-16.6 4.7 0 13.8 12.3 13.9 18.8 0 2.8-2.7 9.4-4.3 10.4-2.8 1.8-5.5.8-6.7-2.4zm-58.3-2.9c-5.7-3-7.9-7.2-7.1-13.9.6-6.2 3.7-10 7.9-10 2.9 0 4.1 2 5.6 9.2.7 2.9 2.2 6.6 3.5 8.1 6 7.2-.5 11.6-9.9 6.6zm182.2-3.6c-1-1.6-2-6.4-2.4-11.3-.6-7.7-.5-8.7 1.4-11.2 1.2-1.4 3.5-2.9 5.1-3.3 1.6-.4 3.2-1 3.4-1.3.5-.8-1.6-9.4-3.2-13.2-3.9-9.2-3.2-20 1.6-25.2 3.7-4.1 10-4 13.5.2 3 3.5 4.7 10.7 4.7 19.4 0 7.8-3.9 16.2-8.5 18.6-1.7.8-3.2 1.6-3.4 1.7-.2.2.4 1.2 1.3 2.2 1.4 1.6 1.7 3 1.2 6.3-.4 2.4-.6 6.6-.6 9.3.1 6.1-2.7 9.4-8.7 10.2-3.4.4-4 .2-5.4-2.4zm-72.1 0c-4.3-4.9-5.2-11.5-2.9-21.1 1.4-5.8 3.8-8 7-6.2 6.1 3.2 4.8 26.6-1.5 28.7-.6.2-1.7-.4-2.6-1.4zm-128.8-18c-4.9-.9-12.9-11.1-17.3-22.1-2-5.1-1.5-9.9 1.5-13.7 5.8-7.4 22.5 1.8 29.1 15.8 3.2 7 2.1 11.7-4.2 17.5-3.4 3.2-4.2 3.4-9.1 2.5zm67.6-10.2c-2.2-.5-3.6-1.9-5.9-6.4-2.7-5-3.1-7-3.1-13.5l-.1-7.7-4.9-.6c-4.2-.4-5.4-1.1-8.2-4.5-5.6-6.6-8.6-13.7-9.2-21.5-.4-6.3-.2-7.2 1.8-9.4 2-2.1 3.3-2.5 8.1-2.5 3.2 0 6.9.4 8.3 1 4 1.5 8.6 6.1 11.4 11.5 3.1 5.9 3.6 16.2 1.3 23.3-1.3 3.9-1.3 4.4.6 6.5 4.5 5.1 7.3 16.8 5.3 21.8-.7 1.6-1.5 2.8-1.9 2.8-.3-.1-1.9-.4-3.5-.8zm53.1-6.2c-3.2-1.8-4.7-7.3-4.7-16.4v-8.6l-3.2-1.7c-8.6-4.5-14-13.7-14.6-24.9-.4-7.2-.4-7.3 3.1-10.8 2.9-2.9 4.2-3.5 7.9-3.5 9.6 0 19.9 10.3 21.4 21.4.6 4.2-1.3 9.9-4.8 14.9-1.1 1.4-1 2.3.6 5 3.6 6.1 7.3 14.2 7.9 17.5.6 2.9.3 3.4-3.3 5.7-4.2 2.7-7.4 3.1-10.3 1.4z"/>
  <g fill="#8065ad">
    <path d="M367.8 876.9c-2.2-.7-3.8-1.7-3.8-2.6 0-1.2 1.2-1.4 7.5-.8 7.4.7 20.5-1 20.5-2.6 0-.4 1.6-1.3 3.5-2s3.5-1.7 3.5-2.1c0-.4.9-.8 2-.8 1.2 0 2-.7 2-1.6 0-1.8 3.8-5.3 5.8-5.4.6 0 1.2-.9 1.2-2s.4-2 .8-2c1.1 0 5.2-12.9 5.2-16.3 0-1.5-.9-5.3-2-8.4-1.1-3.2-2-7.2-2-9 0-3.1.2-3.3 3.3-3.3 2.3 0 4.1-.8 5.7-2.5 2.6-2.7 2.6-2.6-2.5-11.5-.8-1.4-1.5-3.9-1.5-5.6 0-2.9.3-3.2 4.4-3.7 5-.7 10.7-5.7 12.7-11 1-2.8.9-3.9-1-7.4-1.1-2.3-2.5-4.4-3.1-4.8-.5-.3-1-1.5-1-2.5 0-1.2-.8-2-2.2-2.2-1.3-.2-2.7-1.3-3.3-2.5-.5-1.3-1.8-2.3-2.7-2.3-1 0-1.8-.4-1.8-1 0-.5-.7-1-1.5-1-.9 0-1.8-.7-2.1-1.5-.4-.8-1.2-1.5-2-1.5s-1.4-.7-1.4-1.5-.9-1.5-2.1-1.5c-2.9 0-5.9-1.8-5.9-3.5 0-2.4-4.4-1.7-6.8 1-1.8 2.1-3.1 2.5-7.6 2.5-6.4 0-8.6-.7-8.6-2.6 0-.8-.7-1.4-1.5-1.4-.9 0-2.3-1.7-3.3-3.7-.9-2.1-2-3.9-2.4-4.1-.5-.2-.8-1.2-.8-2.3 0-1-.7-1.9-1.5-1.9s-1.5-.6-1.5-1.3c0-.7-2-1.9-4.4-2.6-4-1.1-4.8-1.1-7.5.5-1.7 1-3.4 2.6-3.7 3.6-1 3.1-11.4 1.9-11.4-1.3 0-1.3-.7-1.9-2.2-1.9-2.5-.1-5.8-2.2-5.8-3.7 0-.6-2.2-1.3-5-1.7-4.2-.6-5-1-5-2.7 0-1.9.4-2 3.7-1.4 4.9.9 12.1 4.7 16 8.4 1.8 1.7 3.6 3.1 4.1 3.1.4 0 1.8-1.3 3-3 2.9-3.9 8.9-5.7 14-4.2 4.7 1.5 8.4 4.9 13.4 12.6 6.1 9.4 10 10.8 15.1 5.1 1.7-1.9 3.7-3.5 4.5-3.5 2.8 0 22.7 13 30.2 19.7 9.7 8.7 12.1 18.4 6.5 26.4-3.2 4.5-7.2 7.2-12.4 8.4l-3.3.7 2 2.1c3 3.3 5.2 8.2 5.2 11.6 0 4.2-4.4 9.1-8.1 9.1-3.4 0-3.5.4-1.3 5.6 2.2 5.2 2.2 15.7 0 22.4-5.1 15.3-21.1 26.6-39.1 27.6-3.8.2-8.7-.2-10.7-.7zm-10-5.2c-1.4-1.2-3.8-4.1-5.2-6.4-1.4-2.3-3.5-4.4-4.6-4.8-3.3-1.1-8.8.3-15.4 3.9-7.1 3.8-16.8 7.6-19.6 7.6-3.4 0-2.5-3.7 1.1-4.4 1.7-.3 7.7-2.8 13.3-5.6 9.1-4.5 10.9-5 16.8-5 7.5 0 9.8.6 9.8 2.6 0 .8.4 1.4.9 1.4s1.3 1 1.7 2.2c.3 1.2 1.5 2.9 2.6 3.8 1.3 1 1.9 2.5 1.6 4.3l-.3 2.7-2.7-2.3zm-59.9.3c-8.8-1.5-17.1-7.2-22.1-14.9-3.3-5.2-3.6-8.1-.9-8.1 1.2 0 2.3 1.2 3.2 3.3.7 1.7 2.1 3.9 3.1 4.8 1 .9 1.8 2.1 1.8 2.8 0 .6.7 1.1 1.5 1.1.7 0 1.8.6 2.2 1.4 1.3 2.2 13.8 6.6 18.7 6.6 3.3 0 4.6.4 4.6 1.4 0 2.4-4 3-12.1 1.6z"/>
    <path d="M353.3 851c-1.8-1.1-3.3-2.6-3.3-3.4 0-.8-.5-1.6-1.1-1.8-1.9-.6-3.9-10.9-3.9-20 0-8.1.2-8.8 2-8.8 1.9 0 2 .7 2 9.8.1 14.5 4.5 22.2 12.8 22.2 9.3 0 33.8-27 28.9-31.9-.8-.8-.4-1.1 1.6-1.1 2.5 0 2.7.3 2.7 3.9 0 2.2-.7 4.6-1.5 5.5-.8.8-1.5 2.2-1.5 3 0 .9-.4 1.6-1 1.6-.5 0-1 .7-1 1.5s-.9 1.5-2 1.5c-1.4 0-2 .7-2 2.3 0 3.2-3 5.7-6.8 5.7-2.7 0-3.1.3-3.4 3.3-.2 2.4-.8 3.3-2.5 3.5-1.3.2-2.3 1-2.3 1.8s-.9 1.4-2 1.4-2 .5-2 1c0 1.9-10.3 1.1-13.7-1zm-166.8-7c-6-1.4-10.1-3.8-13.4-7.5-3.1-3.5-3.3-4.2-2.8-8.6 1.1-8.8 6.5-15.9 12.2-15.9 2.6 0 1.7 3.4-1.4 5.2-4.6 2.6-7.3 8.8-6.5 14.8.5 3.7 1.1 5 2.3 5 .9 0 4.9 1 8.8 2.2 5.4 1.7 7.3 2.8 7.3 4.1 0 1.8-1.5 2-6.5.7zm10.5-.9c0-1.6.6-2.1 2.9-2.1 1.5 0 9.5-1.6 17.7-3.5 9.7-2.3 17.4-3.5 22.2-3.5 6.8 0 7.2-.1 6-1.9-1.8-2.9-8.2-4.7-11.3-3.3-1.4.7-3.5 1.2-4.5 1.2-1.1 0-2 .5-2 1 0 .6-2.5 1-5.5 1s-5.5-.4-5.5-1c0-.5-.7-1-1.5-1-1 0-1.5-1.1-1.5-3.5 0-4.2.4-4.3 3.4-.8 2.8 3.2 6.7 3.3 12.5.4 7.4-3.8 14.6-2 22.9 5.9 6 5.7 5.7 7.4-1 6.4-9-1.3-18.8-.5-31.3 2.5-6.6 1.6-14.6 3.2-17.7 3.6-5.5.7-5.8.6-5.8-1.4zm75-9.3c0-3 3-11.9 5.9-18.2 3.7-7.7 12.2-17.3 18.7-21.1 5-2.9 14.7-6.5 17.6-6.5 1.1 0 1.8.7 1.8 2 0 1.2-.7 2-1.6 2-3.1 0-14.9 5.4-17.9 8.2-1.8 1.6-4.1 2.8-5.7 2.8-2.4 0-2.8.4-2.8 3 0 1.7-.4 3-.9 3-1.2 0-9.8 17.9-10.6 22.3-.5 2.7-1.2 3.7-2.6 3.7-1.1 0-1.9-.6-1.9-1.2z"/>
    <path d="M371.7 818.2c-.9-.9-2-4.4-2.5-7.7-1.7-10.2.8-17.9 6.6-20.8 1.5-.8 8.8-2.9 16.2-4.7 7.4-1.8 13.7-3.4 13.9-3.6.2-.2-1.1-2-2.9-4.1-3.1-3.5-8-12.6-8-14.9 0-.6-.9-1.9-2.1-3-2.1-1.9-2.1-1.8-4 .6-1.1 1.4-2.7 3.3-3.4 4.3-2.9 3.4-6.3 2.1-13-4.8-3.4-3.6-6.7-6.5-7.3-6.5-.6 0-1.9 1.7-2.9 3.8-2.6 5.3-8.2 8.1-18 8.8-17.4 1.4-35.7-7.8-41.2-20.6-2.8-6.4-1.7-11.7 3.2-15.3 6.2-4.6 13.7-6.1 13.7-2.7 0 1.6-.7 2-3.5 2-1.9 0-3.5.5-3.5 1 0 .6-.6 1-1.2 1-3.1.1-8.8 11-5.9 11 .5 0 1.2.8 1.6 1.9.3 1 2.5 3.8 4.8 6.2 9.6 9.9 29.7 15 39.4 10 4.3-2.1 8.3-6.4 8.3-8.7 0-2.3 9.2-1.8 12.4.7 1.4 1.1 2.6 2.5 2.6 3s1.4 2.2 3.2 3.8c3.2 2.9 5.8 3.1 5.8.5 0-.8 1-1.4 2.5-1.4 1.6 0 2.5-.6 2.5-1.6 0-1.2.9-1.4 3.7-1.2 3.2.3 4.1.9 5.5 3.8.9 1.9 1.7 4.5 1.8 5.8 0 1.2.4 2.2.9 2.2s1.3 1 1.7 2.3c.4 1.2 1.5 2.8 2.5 3.5 1.1.7 1.9 2.2 1.9 3.3 0 1 .7 1.9 1.5 1.9 1 0 1.5 1 1.5 3.4 0 3.8 1.8 3-19.8 8.2-9.3 2.2-11.9 3.2-14.5 5.8-3 2.9-3.2 3.5-3.1 9.9 0 5.5.4 7.1 2.1 8.9 1.9 1.8 2.5 1.9 5.4.9 4.4-1.5 8.9-1.4 8.9.2 0 1.5-9.1 4.7-13.2 4.7-1.4 0-3.2-.8-4.1-1.8zm-173.4-1.1c-3.8-1.1-5.3-2.1-5.3-3.3 0-1.1.8-1.8 1.9-1.8 2 0 9.3 2.4 12.9 4.2 5.8 3-.7 3.7-9.5.9zm146.2-9.6c-.3-3-1.1-5.5-1.6-5.5s-.9-1.1-.9-2.5c0-1.7-.6-2.5-1.7-2.5-1 0-4-1.1-6.7-2.5s-5.8-2.5-6.8-2.5c-1.2 0-1.8-.7-1.8-2.1 0-2 .4-2.1 4.1-1.5 8.7 1.4 15.7 6.9 18.4 14.5 2.1 6.2 2 10.1-.4 10.1-1.5 0-2-1-2.6-5.5zm95.2-42.3c-2.2-2.4-2.1-3.8.3-6.9 1.1-1.4 2.7-5.2 3.6-8.4 2.1-7.4 5.1-10.5 11-11.4 3.5-.5 5.8-1.7 10-5.6 4.8-4.3 5.9-4.9 9.9-4.9 4.1 0 4.6-.3 6.4-3.7 4.4-8.5 18.1-17.2 18.1-11.4 0 1.1-1.2 2.3-3 3.1-3.7 1.5-12 9.5-12 11.5 0 .8-.9 1.5-2 1.5s-2 .7-2 1.5c0 1-1 1.5-2.7 1.5-1.6 0-4.5.3-6.5.6-3.2.6-3.8 1.1-3.8 3.1 0 1.6-.7 2.7-2 3-1.1.3-2 .9-2 1.3s-1.7 1.1-3.7 1.5c-6.3 1.2-8.9 3.1-11.2 8.4-1.1 2.7-2.1 5.5-2.1 6.1 0 .6-.7 2.5-1.6 4.2-1.6 3.1-1.6 3.1.8 2.3 1.2-.4 3.8-.9 5.6-1.2 2.6-.4 3.2-1 3.2-2.9 0-2.7 2.6-4.4 6.9-4.4 3.7 0 4.3 2.5.8 3.4-1.2.3-4.1 2.1-6.4 4-6.6 5.8-12.6 7.2-15.6 3.8zM469 755c0-1.1.4-2 1-2 1.2 0 5.6-4.4 7-7 .5-1 1-2.8 1-3.9 0-3.6 3.2-5.7 10.8-6.9 8.3-1.4 10.2-2.9 14.9-11.8 3.1-5.9 3.2-6.1 1.3-7.4-2.6-1.9-2.6-5-.1-5 2.3 0 4.7 2.2 5.6 5 .9 2.9-4.4 13.8-8.8 18.2-3.4 3.4-7.1 4.8-12.9 4.8-3.7 0-7.8 4-7.8 7.6 0 1.9-1.3 3.9-4 6.6-4.5 4.2-8 5-8 1.8zm-58.7-26.7c-1.8-.3-2.3-1.1-2.3-3.6.1-7.1 5.9-15.1 11.8-16.3 2.7-.5 3.2-.4 3.2 1.2 0 1.8-3.9 4.4-6.5 4.4-.5 0-1.6 1.7-2.3 3.8-2.8 8-2.8 7.5.9 6.9 6.3-1 10.9-3.1 10.9-5 0-1 .7-2 1.5-2.3.9-.4 1.5-1.9 1.6-3.8 0-1.7.8-6.2 1.7-10.1 1.5-5.9 2.1-7.1 4-7.3 1.3-.2 2.2-1 2.2-2s1.6-2.6 3.5-3.6c3.2-1.7 3.5-2.3 3.5-6.3 0-3.5.6-4.9 2.6-6.8 1.5-1.4 3.5-2.5 4.5-2.5 1.1 0 1.9-.6 1.9-1.3 0-.7.9-2.3 2.1-3.5 3.6-3.9 7.2-13 6.5-16.5-.7-3.3-3.2-6.7-5-6.7-1.5 0-6.6 4.5-6.6 5.9 0 .6-.7 1.1-1.5 1.1s-1.5.9-1.5 1.9c0 1-1.1 4.3-2.5 7.3-1.4 2.9-2.5 6.1-2.5 7.1 0 1.1-.8 1.7-2.1 1.7-1.9 0-2.1-.4-1.4-3.7 1.6-8.9 9.7-22.5 14.9-24.9 9.7-4.7 15.6 9.4 9.4 22.6-2.7 5.9-5 8.7-11.2 13.6-3.4 2.7-3.9 3.6-4 7.4-.1 3.9-.5 4.7-3.6 6.6-6.6 4.1-8.7 7-9.9 13.6-2 10.4-3.2 13.5-6.5 16.6-4.7 4.4-10.2 5.9-17.3 4.5zm-109.5-15.4c-2.5-1.4-7.1-8.6-9.1-13.9-.9-2.5-2.3-8.7-3.1-13.9-1.6-9.5-2.4-11.4-8-18.6-2.8-3.6-3.1-4.5-2.9-10.6.2-6.5.1-6.9-3.7-11.6-2.1-2.8-4.4-7-5.1-9.7-1.9-7.8.5-18.6 4.3-18.6 2.2 0 2.3 2.1.2 6.2-2.2 4.2-.5 17.8 2.2 17.8.8 0 1.4 1 1.4 2.5 0 1.8.5 2.5 2 2.5 2.3 0 3.6 5.2 2.6 10.2-.6 3.1 1.1 8.8 2.6 8.8.5 0 .8.9.8 2s.7 2 1.6 2c2.1 0 4 5.1 5.3 14.4.6 4.3 2.3 10.6 3.7 14 1.4 3.3 2.8 6.8 3.1 7.6.3.8 1.8 2.6 3.4 3.9 2.9 2.2 3.1 2.3 4.9.6 1.1-1 2.2-2.6 2.5-3.6.4-1.2 1.6-1.9 3.1-1.9 2.4 0 2.4 0 .9 3.7-.9 2.1-2.3 4.5-3.2 5.5-1.8 2-6.8 2.3-9.5.7zm60.3-4.8c-1.8-1.8-4.1-7.9-4.1-10.8 0-.7.9-1.3 2-1.3 1.2 0 2 .7 2 1.8 0 2.5 3.7 8.2 5.4 8.2 2.2 0 6.4-5.7 7.2-9.6.5-2.5-.1-5.7-2-11.2-1.4-4.3-2.6-9.5-2.6-11.8 0-5.3 3.8-12.8 6.8-13.2 1.6-.3 2.2-1 2.2-2.8 0-1.3.4-2.4.9-2.4 1.4 0 2.3-5.2 1.2-6.3-1.8-1.8-1.3-8.2.7-10 1-1 2.4-1.7 3-1.7.7 0 1.2-.7 1.2-1.5s.4-1.5.8-1.5c.9 0 4.2-8.7 4.2-11.1 0-.8-1.2-3.8-2.6-6.7l-2.6-5.2-3.8 2.2c-2.1 1.3-5 4-6.4 6.2-2.5 3.9-2.6 4.4-2 14.6.6 9 .4 10.8-1 12.2-.9.9-1.6 2.1-1.6 2.7 0 .6-.4 1.1-.9 1.1s-1.2 1.1-1.5 2.5c-.4 1.6-1.3 2.5-2.6 2.5-2.7 0-2.5-2.7.5-7.2 4.3-6.3 4.7-8.4 3.4-16.4-1.1-6.3-1-7.7.5-11.8 1.9-4.9 7.4-10.3 11.6-11.3 1.4-.3 3-1 3.6-1.4 1.3-1 4.4 2.1 6.8 6.9 2.1 4.1 2.3 13.7.3 18.4-.8 2-3.1 5.4-5.1 7.6-3.3 3.6-3.5 4.2-2.5 7.1 1.5 4.4.5 7.7-4.5 14.1-7.5 9.6-8 11.8-4.6 20.8 3.8 9.9 2.5 22.1-2.7 26.2-3.3 2.6-8.7 2.6-11.2.1z"/>
    <path d="M424 699c0-6.2 6.3-14.6 11.6-15.6 3-.6 3.3-.9 2.7-3.5-.5-2.5-.2-2.9 1.6-2.9 1.7 0 2.1.6 2.1 3.5 0 2.4-.5 3.5-1.5 3.5-.8 0-1.5.7-1.5 1.5 0 1-1.4 1.7-4 2.1-3.4.6-4 1-4 3 0 1.3-.4 2.4-.9 2.4s-1.2 1.8-1.6 4c-.5 3-1.1 4-2.6 4-1.2 0-1.9-.7-1.9-2zm-114.2-7.3c-1-2.3-1.8-5-1.8-6s-.8-1.7-2-1.7c-1.6 0-2-.7-2-3.1 0-2.8.2-3 1.7-1.8 4.5 3.6 9.2 11.3 9.3 15.2 0 3.5-3.5 1.8-5.2-2.6zm47.2.1c0-3.4 2.5-11.7 5-16.8 2-3.8 2.2-5.4 1.6-11.7-.5-6.7-.4-7.3 1.3-7.3 1.6 0 2 1 2.6 6.5.8 7.1.1 12.7-1.8 14.7-1.5 1.6-4.7 11.6-4.7 14.6 0 1.5-.6 2.2-2 2.2s-2-.7-2-2.2zM295.5 674c-1.9-3.7-2-10-.1-10 .8 0 1.7 1.2 2.1 2.8.3 1.5 1.7 4.4 3.1 6.5l2.4 3.7h-3c-2.3 0-3.3-.7-4.5-3zm-2.5-20c0-1.1-.4-2-1-2-.5 0-1-.7-1-1.5s-.7-1.5-1.5-1.5-1.5-.6-1.5-1.4c0-.8-.5-1.6-1.2-1.8-.6-.2-1.3-3-1.6-6.1-.4-4.8-.2-5.7 1.2-5.7 1.1 0 1.8 1.3 2.2 4.1.4 2.3 1.9 5.5 3.4 7.3 5.2 6 6.5 10.6 3 10.6-1.3 0-2-.7-2-2zm-9-23c0-3-2.6-7.5-5.6-9.9-2.7-2.1-2.7-5.1-.2-5.1 4 0 8.1 5.6 9.3 12.8.6 3.8.5 4.2-1.4 4.2-1.5 0-2.1-.6-2.1-2zm769.3-232.1c-1.2-.4-3.4-2.4-5-4.5-4.1-5.4-8.3-9.2-12.8-11.5-9.3-4.8-12.7-9.3-16.2-21.4-.8-2.7-5.3-12.9-9.9-22.6-9.6-20-13.1-31.7-12-39.1 1.2-7.8 3.9-10.7 15.9-16.8 6-3.1 14.1-8.1 18-11.3 4-3.1 10.6-8.4 14.7-11.7 9.7-7.8 17.7-12 22.6-12 5 0 6.5 1 7.8 5.1 2 6 9.5 5.8 24.1-.8 4.6-2.1 10.2-3.8 13.2-4.1 8.3-.7 8.5-.1 8.5 28.8 0 20.1.3 24.5 1.7 27.2 3.1 6.2 17.2 14.9 27.6 17.1 4.7.9 6.3.9 9.8-.4 5.2-1.8 13.1-.9 15.7 1.8 6 6.5 5.4 16.4-1.5 24.8-7.1 8.7-46 39.3-52.7 41.4-9 2.9-20.5-4.4-27.9-17.9-7.2-13.1-8.7-23.7-4.5-32.6 2.2-4.7 7.8-10.4 10.3-10.4 1.8 0 4.3-3.6 4.3-6.2 0-1.4-.7-4.5-1.6-6.9-1.1-3.2-1.3-6.2-.9-11.4.6-6.3.5-7.2-1.4-8.9-1.8-1.7-2.5-1.7-6.5-.6-5 1.4-7.1.9-13.5-3-6-3.6-8.5-4.3-12.6-3.6-2.9.6-4.2 1.9-8.4 8.4-2.8 4.3-6.4 8.5-8 9.5-8.1 4.8-8 7.4.2 15.9 5.6 5.6 6.7 7.3 8.6 13.9 1.3 4.3 4.1 10.1 6.6 13.9 5.5 8.2 6.5 10.9 6.5 17.4 0 6-3.9 18.9-7.5 25.2-3.5 6-8.8 8.9-13.2 7.3zm156-89.1c-1.3-.6-2.5-1.9-2.8-2.9-.6-1.9 1-5.9 2.4-5.9.4 0 2.4-1.6 4.4-3.5 2.5-2.5 4.2-5.4 5.5-9.8 1.7-5.7 2.2-6.4 6.4-8.5 8.6-4.3 24-3.9 28.3.8 2.4 2.6 1.3 8.2-2.3 11.9-6 6-19.6 13.6-30.6 17-7.6 2.4-8.2 2.4-11.3.9zm-230.1-41.6c-.9-1.6-3.4-4.4-5.5-6.2-3.3-2.8-3.8-3.9-3.5-6.6.3-2.6 0-3.4-1.7-3.8-3.3-.9-12-8.7-11.7-10.5.8-3.6 9.5-10.3 11.2-8.4.4.4 1.8 3.5 3.1 6.8 3 7.7 4.3 9.2 10.2 11.7 5.3 2.3 6.7 4.1 6.7 8.8 0 3.8-3.8 11-5.7 11-.7 0-2.1-1.3-3.1-2.8zM952 235.3c-3.2-1.2-8.4-7.1-11.1-12.8-3.2-6.7-4-16.6-1.6-20 3.3-4.5 16.3 1.7 22.1 10.6 3.1 4.7 4.1 9.2 3.2 14.3-.5 2.8-1.6 4.1-5 6.1-4.4 2.6-5 2.7-7.6 1.8zm66.4-7.7c-2.2-1.9-2.9-3.5-3.5-8.2-.4-3.3-1-7-1.4-8.3-.8-2.3-.6-2.4 2.3-1.8 1.9.4 3.2.2 3.2-.3 0-3.6 8 3.2 9.9 8.3 2 5.2-1.2 12.7-5.4 12.7-1.3 0-3.6-1.1-5.1-2.4zm94.7-8.3c-1.7-5.9-1.3-11 1-15.6 1.2-2.3 2.6-4.5 3.1-4.8.5-.3.2-1.3-.7-2.2-5.8-5.8-6.1-20-.4-21.9.6-.2-1.4-4.5-4.5-9.8-6.2-10.4-6.8-13.7-3.7-20.5 1.9-4.3 7.3-9.5 9.7-9.5 2.5 0 7 2.8 9.8 6 5.4 6.5 5.8 17.4.8 27.2-1.5 2.9-3.7 5.7-4.9 6.3-2.3 1-3.1 2.5-1.5 2.5s3.2 5 3.2 9.8c0 2.6-.9 6.6-2 9-1.1 2.5-1.5 4.2-.8 4.2s.9 2.4.5 7.5c-.9 12.8-7.2 20.4-9.6 11.8zm-44.1-1.5c0-2.6-4.8-11.4-8-14.6-2.8-3-3.1-3.8-2.5-7 1.3-6.8 6-11 11.1-10 2.5.5 5.7 13.6 4.9 20.8-.7 6.9-2.5 12-4.2 12-.7 0-1.3-.6-1.3-1.2zm-57.8-16.1c-3.3-5.2-6.2-12.6-6.2-15.7 0-2-1.2-3.9-4.1-6.7-7.6-7.1-9.8-14.9-7.9-27.7.7-4.4 1.7-8.7 2.3-9.4 1.4-1.8 4.7-1.5 8.6.9 9.5 5.8 13.6 16.8 10.6 28.3-1.5 5.7-1.5 5.9.6 7.4 1.8 1.2 2 2.1 1.4 6.2-.5 3.7-.3 5.4 1 7.4 2.4 3.6 2.4 9.2-.1 11.1-2.9 2.2-4 1.8-6.2-1.8zm45.5-24.4c-1.5-1.7-2.9-6.7-4.2-14.5-.3-2.1-1.7-5-3-6.6-3.8-4.5-4.4-7.2-4.7-21-.3-16.4.6-18.2 10.5-20.6 4.4-1 8.2 3.6 9.6 11.7 2.6 14.8.1 22.5-8.2 25.6-1.5.6-2.7 1.5-2.7 2.1 0 1.3 1.2 1.3 4.4 0 3.7-1.4 7.1.3 8.4 4 1.5 4.2 0 16.5-2.4 19.1-2.1 2.4-5.6 2.5-7.7.2z"/>
  </g>
  <path fill="#b17f49" d="M1108.5 859.7c-14.8-6.1-48.4-22.9-55.3-27.6-7.3-4.9-11.8-10-14.9-16.8-2.7-5.9-2.5-10.6.6-12.3 1-.5 7.6-.8 14.7-.7 11.6.2 13.3 0 17-2 14-7.5 15.9-29.4 3.6-41.8-2-2-4.9-4.4-6.4-5.3-2.4-1.4-4.8-5.5-6.3-10.9-.9-3.4 2.8-10.9 6.7-13.3 2.6-1.6 5-2 11.6-2 9.5 0 12.8-1.1 21.6-7.3 11-7.9 12.7-8.2 40.6-8.1 26.9 0 39.2 1.5 48.5 5.8 5.3 2.4 10.5 7 10.5 9.2 0 2.7-32.6 13.9-57.4 19.8-3.8.9-8.9 2.8-11.3 4.2-7.6 4.4-8.9 7.5-12.4 29.6-2.9 18.9-3 19.9-1.5 25 2.9 10 11.5 12.6 18.4 5.5 4.6-4.7 5.2-7.5 5.2-22.5 0-16.6 1.3-21.2 8.3-28.9 7.1-7.7 15.6-11.6 25.2-11.6 9.3 0 16.6 3.3 24.6 11.2 12.9 13 17.5 32.8 13.4 59.1-2.8 18.5-7.4 27.2-16.9 31.6-6.2 2.9-15.8 3.2-32.1.9-14.3-2-18.5-1.3-33.5 5.8-9.3 4.4-17.2 5.6-22.5 3.4zm-116-51.1c-6.6-1.6-8.5-2.7-12.7-7.4-6.3-7-6-15.3.6-20.6 3.4-2.8 4.5-3.1 10.9-3.1 6 0 8 .4 11.8 2.7 8.7 5.1 20.4 14.4 20.7 16.4.1 1 .3 2.6.4 3.4.5 4.7-.3 6.1-4.4 8-5.1 2.3-19.2 2.6-27.3.6zm65.6-98.1c-3.6-5.4-5.2-11-4.9-18.2.3-6.3.2-6.6-3-9.1-9.9-8-10.2-8.4-10.2-15.7v-6.8l-6-5.6c-3.3-3.1-6.4-6.9-7-8.4-.5-1.6-1-6.6-1-11.2 0-7.5.2-8.4 2-9 5.5-1.7 15.9 4.6 19.5 11.8 2.8 5.7 3.2 11.1 1.2 17.8-.8 2.5-1.1 5.2-.8 6.1.3.9 2.9 3.4 5.7 5.6 5.8 4.5 6.8 6.9 4.8 10.8-2.2 4.1-1.7 5.4 3 10 11.2 10.7 12.8 25.4 2.8 25.4-3.1 0-4.1-.6-6.1-3.5zm147.6 1.8c-.9-.9-.9-6.1.1-6.5.4-.2 1.7-2.1 2.8-4.3 5.9-11 13.5-6.4 8.8 5.3-.8 2.3-2.6 4.4-4 5.1-2.8 1.2-6.7 1.5-7.7.4zm-91.2-11.6c-4.4-3.7-6.3-11.1-5.2-20.1 1.1-9 .5-12.1-3.2-15.5-5.9-5.6-6.6-7.6-6.8-20.3l-.2-11.7-4.4-5.5c-6.3-7.6-9-15.2-9.1-25.1-.2-15.4 5.8-20.9 13.9-12.7 8.5 8.5 11.7 22.9 7.7 34.6l-2 5.8 3.9 3.5c2.1 1.9 4.8 5.5 6 8 2 4 2.1 5.5 1.5 14.2l-.7 9.7 3.2 4.4c5.3 7.3 6.9 11.8 6.9 19.8 0 6.8-.2 7.6-2.9 10.3-3.5 3.5-5.2 3.6-8.6.6zm47.7 1.1c-1.4-1.8.9-13.3 3.9-19.4 3.3-6.9 2.9-10.8-1.9-18.8-2.3-3.8-4.4-8.7-4.7-11-.8-4.8.8-11.6 3.6-16.2 2.3-3.7 2.4-5.7.5-7.3-2.5-2.1-6.4-11.6-7.1-17.3-.8-6.6 1.4-15.7 4.7-19 2.6-2.6 8-1.9 11.5 1.4 8.8 8.2 11 24 5 35.5-2.2 4.2-2.1 9.1.3 14.4 2.6 5.9 2.5 13.2-.3 18.9-1.8 3.8-2.2 6.3-2.2 16.5-.1 16.4-.1 16-4 20-3.7 3.6-7.4 4.5-9.3 2.3zm53.8-13.2c-1.8-2.3-.2-12.1 3.2-18.5 1.6-3.1 4.7-7.2 6.9-9.2l4.1-3.7-1.6-5.3c-3-10-1.5-21.6 2.9-23.3 3.4-1.3 7.4-.5 10.4 1.9 8.1 6.9 6.6 24.8-2.2 25.7l-3.2.3-.7 8.3c-.4 4.6-1.2 9.9-1.8 11.8-2.9 8.7-14.3 16.3-18 12zM282 421c0-1.6.7-2 3.5-2 3.9 0 4.6 1.4 1.6 3-3.1 1.6-5.1 1.2-5.1-1zm35-12c0-1.7.7-2 4.5-2 4.9 0 6.4 2.3 2.3 3.4-4.5 1.2-6.8.7-6.8-1.4zm41-4c0-1.6.7-2 3.5-2 3.9 0 4.6 1.4 1.6 3-3.1 1.6-5.1 1.2-5.1-1zm-114.4-20.2c-1.1-4.2-.7-5.8 1.4-5.8 1.7 0 2 .7 2 4 0 4.5-2.3 5.7-3.4 1.8zm-2-21c-1-3.8-.7-4.8 1.4-4.8 1.6 0 2 .7 2 3.5 0 4-2.4 4.9-3.4 1.3zM414 346.1c0-2.9.3-3.1 3.6-3.1 3.9 0 3.8.9-.6 4l-3 2.1v-3zm15-8.1c0-1.6.7-2 3.5-2 4 0 4.9 2.4 1.3 3.4-3.8 1-4.8.7-4.8-1.4zm-107.8-4.9c-1.6-5.2-1.5-6.1.7-6.1 2 0 3.1 2.5 3.1 7.3 0 4.1-2.5 3.3-3.8-1.2zm127-2.3c.3-2.9.7-3.3 3.6-3.6 2.9-.3 3.2-.6 3.2-3.8 0-3.1.2-3.4 3.1-3.4 2.4 0 2.9.3 2.2 1.3-4.7 6.2-9 11-10.5 11.8-1.7.9-1.9.7-1.6-2.3zM315.8 322l-2.8-3.5 2.6-.3c3.3-.4 3.6-.1 3.2 3.9l-.3 3.4-2.7-3.5zm108.2-8.6c0-1.2 3.4-6.4 4.2-6.4.4 0 .8 1.6.8 3.5 0 3.1-.3 3.5-2.5 3.5-1.4 0-2.5-.3-2.5-.6zM227.5 293c1.1-1 3.7-2.6 5.8-3.5l3.7-1.5v2.5c0 1.8-.5 2.5-2 2.5-1.1 0-2 .5-2 1 0 .6-1.7 1-3.7 1-3.7 0-3.7 0-1.8-2zm132.5-7.4c0-3.2.3-3.6 2.5-3.6 2.4 0 2.5.1 1.2 3.2-1.9 4.6-3.7 4.8-3.7.4zm-106-.6c0-1.3.7-2 2-2s2 .7 2 2-.7 2-2 2-2-.7-2-2zm-40-4.5c0-3.1-.3-3.5-2.5-3.5s-2.5-.4-2.5-3.5c0-4.5 1.1-4.4 3.8.4 1.2 2.1 2.9 4.4 3.7 5.1 1.1.9 1.2 1.7.4 3.1-1.5 3-2.9 2.2-2.9-1.6zm69.7-4.7c-.8-3.1.2-6.8 1.9-6.8 1 0 1.4 1.3 1.4 4.5 0 4.9-2.3 6.4-3.3 2.3zm-103.1-13.9-2.8-4 3.3.3c3.1.3 3.4.6 3.7 4.1.2 2 0 3.7-.5 3.7-.4 0-2.1-1.9-3.7-4.1zm103.4 2.9c0-3 1.3-5.8 2.6-5.8.9 0 1.4 1.2 1.4 3.5 0 2.8-.4 3.5-2 3.5-1.1 0-2-.6-2-1.2zm-36.7-16.5c-.3-1-.8-2.1-1-2.5-.2-.5.7-.8 2.1-.8 2.1 0 2.6.5 2.6 2.5 0 2.9-2.7 3.5-3.7.8zm6.7-3.8c0-2.4.5-3.5 1.5-3.5.8 0 1.5.4 1.5.9s.2 1.5.5 2.3c.3.7-.4 1.9-1.5 2.6-1.9 1.1-2 1-2-2.3zm-71-3.5c0-1.3-.7-2-2-2-1.6 0-2-.7-2-3 0-2.7.2-2.9 1.9-2.1 1.8 1 8.1 7.7 8.1 8.6 0 .3-1.3.5-3 .5-2.3 0-3-.4-3-2zm-16-13.6c0-1.4.3-2.4.8-2.2 7.3 3.5 8 4.8 2.7 4.8-3.1 0-3.5-.3-3.5-2.6zm193-1.9c0-3.1.3-3.5 2.5-3.5 3 0 3 .3.8 4.1-2.3 3.8-3.3 3.7-3.3-.6zm-54-2.8c0-3.2.3-3.7 2.4-3.7 1.9 0 2.3.4 1.9 1.9-.3 1.1-1.4 2.7-2.4 3.7-1.8 1.7-1.9 1.6-1.9-1.9zm44.2-.2c2.9-4.4 3.8-4.4 3.8 0 0 3.2-.2 3.5-3 3.5h-3l2.2-3.5zm-42.2-15c0-4 2.4-4.9 3.4-1.2s.7 4.7-1.4 4.7c-1.6 0-2-.7-2-3.5zm-78.4.6c-.3-.4-1-2-1.5-3.5-1-2.4-.8-2.6 1.4-2.6s2.5.4 2.5 3.5c0 3.3-1.2 4.6-2.4 2.6zm141.4-4.5c0-3.2.3-3.6 2.5-3.6 2.4 0 2.5.1 1.2 3.2-1.9 4.6-3.7 4.8-3.7.4zm-80-16.8c0-3 1.3-5.8 2.6-5.8.9 0 1.4 1.2 1.4 3.5 0 2.8-.4 3.5-2 3.5-1.1 0-2-.6-2-1.2zm16-6.3c0-3.8.3-4.5 2-4.5 2.1 0 2.6 2.3 1.4 6.8-1.1 4.1-3.4 2.6-3.4-2.3zm73-4c0-2.8.4-3.5 2-3.5 2.1 0 2.4 1 1.4 4.8-1 3.6-3.4 2.7-3.4-1.3zm-145-4c0-4 2.4-4.9 3.4-1.2s.7 4.7-1.4 4.7c-1.6 0-2-.7-2-3.5zm-20.4-4.4c-.3-.4-1-2-1.5-3.5-1-2.4-.8-2.6 1.4-2.6s2.5.4 2.5 3.5c0 3.3-1.2 4.6-2.4 2.6zm18.4-3.6c0-4 2.4-4.9 3.4-1.2s.7 4.7-1.4 4.7c-1.6 0-2-.7-2-3.5zm75-3.5c0-3.3.3-4 2-4 2.1 0 2.5 1.6 1.4 5.8-1.1 3.9-3.4 2.7-3.4-1.8zm75 2.1c0-1 .3-3.9.6-6.5.5-3.7 1.1-4.6 2.6-4.6 2.1 0 2.1.5.2 10.3-.6 3-3.4 3.7-3.4.8zm-27-11.8c.1-3.1 3.7-10 6.1-11.7 3.2-2.2 3.9-2 3.9.9 0 2-.5 2.5-2.5 2.5-2.1 0-2.5.5-2.5 2.8 0 4.7-1.1 7.2-3.1 7.2-1.2 0-1.9-.7-1.9-1.7zm-71.4-3.5c-1.1-4.2-.7-5.8 1.4-5.8 1.7 0 2 .7 2 4 0 4.5-2.3 5.7-3.4 1.8zm-76.2-2.2c-.9-3.7-.1-7 1.9-7.4 1.4-.3 1.7.4 1.7 4.7 0 3.8-.4 5.1-1.5 5.1-.8 0-1.7-1.1-2.1-2.4zm172.6-4.7c0-2.9.2-3 1.8-1.8 3.9 3.1 4.2 4.9.7 4.9-2.1 0-2.5-.5-2.5-3.1zm-156-2.6.1-3.8 2.4 2.8c3.2 3.6 3.1 4.7 0 4.7-2.2 0-2.5-.4-2.5-3.7zm79-15.8c0-3.9 1.4-4.6 3-1.6 1.6 3.1 1.2 5.1-1 5.1-1.6 0-2-.7-2-3.5zm-21-1.7c0-3 1.3-5.8 2.6-5.8.9 0 1.4 1.2 1.4 3.5 0 2.8-.4 3.5-2 3.5-1.1 0-2-.6-2-1.2zm15-10.3c0-2.9 1.2-3.2 3.4-.9 2.3 2.2 2 3.4-.9 3.4-2 0-2.5-.5-2.5-2.5z"/>
  <path fill="#4b62ad" d="M370.2 876.8c-2.9-.4-6.6-1.4-8.1-2.2-2.8-1.5-9.1-8-9.1-9.4 0-.5-.9-1.8-2-3-3.5-3.7-8.9-3-20.5 2.7-12.5 6.2-17.4 7.4-27.2 6.9-13.4-.6-23.8-7.2-28.9-18.1-7.9-17.2 3.2-46.6 22.2-58.7 19.1-12.1 46.7-7.5 50.9 8.5.5 1.7.9 9.8.9 18 .1 13.7.3 15.4 2.5 19.8 2.4 5 7 8.7 10.7 8.7 7.7 0 32.2-25.9 30-31.7-.7-1.7-3.9-1.5-11.9.8-4.6 1.3-4.8 1.3-7.5-1.4-2.5-2.6-2.7-3.2-2.7-12.1 0-9.4 0-9.5 3.4-13 2.9-3 4.7-3.8 14.5-6.1 6.1-1.4 13-3.1 15.4-3.7l4.2-1.1-3.3-4.1c-4.1-4.9-5.6-7.7-7.7-13.5-.9-2.4-2.4-4.9-3.3-5.5-1.5-.9-2.4-.4-5.5 3.2-2 2.3-4.6 4.2-5.6 4.2-1.1 0-4.8-2.9-8.2-6.5-5.9-6.2-10.4-8.4-10.4-5.1 0 2.3-4 6.6-8.1 8.7-4.6 2.3-18.8 2.8-26 .9-19.7-5.3-32.5-22.2-24.3-32 4.3-5.1 7.9-6.4 17.4-6.5 9.6 0 14.5 1.8 21.7 8 4.6 3.9 6.9 4.4 7.7 1.7.9-2.8 6-5.2 10.9-5.2 5.7 0 10.2 3 14.4 9.5 1.8 2.8 4.2 6.2 5.3 7.8 3.7 4.8 10.5 4.9 13 .2 1.8-3.4 5.5-3.2 11.6.6 18.7 12 25.9 18 29.3 24.8 2.3 4.4 2.7 11 1 14.4-3 5.7-9.6 10.7-14.4 10.7-3 0-3.1.9-.5 4.3 2.4 3 5 8.9 5 11.3 0 .9-1.6 3.2-3.5 5.1-2.7 2.7-4.1 3.4-6 3.1-1.4-.3-2.5-.5-2.5-.4 0 .1.9 2.7 2 5.9 2.6 7.4 2.6 15.7-.2 23.7-1.7 5.1-3.4 7.7-8.3 12.7-10.3 10.5-24 15.2-38.3 13.1zm-186.7-34.2c-9.3-3.2-12.5-6.8-12.5-13.7 0-6.2 3-12.3 7.3-14.9 4.4-2.7 14.4-2.7 23.3.1 6.8 2.1 8.5 3.4 17.2 13.2 2.1 2.3 4.1 2.2 10.8-.8 3.1-1.4 6.6-2.5 7.8-2.5 3.6.1 9.9 3.5 14.9 8.2 5.4 5.1 6.1 7.4 2 6.4-1.6-.4-6.2-.9-10.3-1.2-6.3-.5-9.9-.1-22.8 3-21.1 4.9-28.7 5.4-37.7 2.2zm257.3-76.7c-2.3-1.3-2.3-4.1.2-8.1 1.1-1.8 2-3.9 2-4.6 0-.7 1-3.6 2.1-6.3 2.3-5.3 4.9-7.2 11.2-8.4 2.5-.5 5.2-2.2 8.2-5.1 3.7-3.7 5.1-4.4 8.2-4.4 4 0 8.3-2.2 8.3-4.3 0-2 7.7-9.5 11.9-11.7 5.1-2.6 12-2.6 14.9-.1 3 2.5 2.8 6.3-.9 13.1-4.6 8.7-7.2 10.7-15.9 12.4-7.4 1.4-10 3.1-10 6.7 0 3.1-2 6.3-5.7 9.2-3 2.2-4.6 2.7-9.5 2.7-5.2 0-6.2.3-9.7 3.5-3.7 3.4-9.7 6.5-12.3 6.5-.7 0-2.1-.5-3-1.1zm-28.3-37.7c-3.7-.5-4.5-1.7-3.8-5.7 1.5-7.7 6-12.9 12.3-14.2 2.7-.5 3-.9 3-4.7 0-9.7 4.4-17.8 10.8-19.7l3.7-1.1v-8.1c0-8.8 1.4-12.9 7.7-23.3 7.4-12.3 17.6-10.9 18.6 2.5.7 9.7-3.6 17.3-15.2 26.8-2.3 1.9-2.6 2.7-2.1 5.6.6 2.8.2 3.9-1.6 5.6-1.3 1.1-2.6 2.1-3.1 2.1-.4 0-2.3 1.3-4.1 3-3 2.6-3.7 4.1-5.2 11.7-1 4.9-2.7 10.3-3.8 12.1-2.9 5-10.7 8.3-17.2 7.4zM299.7 711c-3.9-3.4-8.4-12.6-9.8-20.2-.5-2.9-1.4-7.8-1.9-10.9-.8-4-2.3-7.1-5.5-11.5-4.4-5.7-4.5-6.1-4.3-12.5.2-6.2 0-6.9-3.3-11-2-2.4-4.2-5.9-4.9-7.7-1.9-4.9-1.7-14.1.3-17.9 1.6-2.9 2.1-3.2 5.7-2.9 6.7.6 10.4 5.3 11.5 14.7 1.1 10.3 1.5 11.5 4.6 14.8 4.1 4.6 4.9 7 4.9 15.2 0 8.4 1.1 10.7 8 17.4 11.3 10.9 13.2 24 4.7 33.3-2.8 3-6 2.8-10-.8zm61.8-3.4c-5.7-5.7-5.5-17.9.4-31.4 3.2-7.2 3.2-7.3 2-15.2l-1.2-7.9 3.8-6.2 3.9-6.3-1.2-7.7c-1.7-11.5 1.2-18.5 9.2-22.8 7-3.7 8.5-3.3 11.8 2.8 5 9.5 3.1 20.2-4.8 27.5-2.8 2.6-3.5 3.8-2.7 4.8 3.3 4.3 1.9 9.6-4.5 17-6.3 7.3-6.9 10.3-3.8 19.3 4.2 12.1 3.1 21.6-2.9 26.3-3.6 2.9-7 2.8-10-.2z"/>
  <path fill="#ed1c29" d="M262.5 423.1c-10-4.5-16.4-19.2-19.4-45.1-.7-5.2-1.6-13-2.1-17.4-1.1-9.1-3-12.9-12.1-23.7-8.8-10.5-11.3-16.3-10.7-24.9.6-7.9 3.7-14.1 9.4-18.8 4-3.3 19.9-9.1 25.9-9.5 3.9-.2 4-.2 4.5 3.8.8 5.6 4 10.5 14.2 21.3 10.1 10.8 12.5 15.8 18.1 38.8 3.9 15.8 5.6 19.4 9.5 19.4 6.7 0 17.9-11.8 20.8-21.8 3.9-13.3.1-20.3-19.7-36.8-9.1-7.6-14.3-14.3-16-20.8-.6-2.2-.9-9.2-.7-15.6.3-9.9.6-12 2.6-15.2 4.2-6.8 6.3-6.8 35.4.1 30.7 7.3 30.9 7.4 36.3 10.5 3 1.8 4.7 3.7 5.9 6.6 1.4 3.6 1.4 4.4.1 8.5-.9 2.5-3.6 8.3-6 13-5.2 9.8-5.6 13.6-2.3 20.2 2.9 5.8 17.2 19.4 24 22.9 4 2 6.8 2.7 11.3 2.8 11.7.1 19.3-6.3 31.5-26.5 8.1-13.4 13.3-19.4 19.4-22.3 11.3-5.4 19.5-2 22.6 9.2 2.1 7.9-2.9 19.1-12.9 28.9-5.6 5.6-8 6.8-16.1 8.2-15.6 2.7-25.3 11-40 34.6-13.2 21.2-20.8 28.5-34.5 32.9-5.9 1.9-20.8 3.6-31.8 3.6-10.7 0-21.2 2.4-32 7.2-18.8 8.3-27 9.7-35.2 5.9zm-64.8-134.2c-.9-.6-2.9-3.3-4.3-6.2-7-13.9-18.3-29.6-28.4-39.2-7.3-7-10.1-15.3-6.3-19 2.2-2.2 5.5-1.5 13.1 2.9 6.7 4 15.8 12.5 22 20.7 2.3 3 5.5 6.3 7.2 7.4 1.9 1.3 4.6 5 7.1 10 2.3 4.4 5.2 9.4 6.5 11.2 3.1 4.1 3 5.7-.3 8.3-5.7 4.5-12.7 6.1-16.6 3.9zM345 252.3c-6.6-8-6.2-13.7 1.5-24.2 9.6-13 9.9-14.5 9.6-48.4-.3-32.5.3-36 6.9-40.3 3.5-2.3 4.3-2.5 11.4-1.8 6.8.6 7.9 1 10.1 3.6 3.5 4.1 3.9 8.4 2.1 19.5-4.1 23.9-10 40.7-22.8 64.3-3.6 6.7-6.4 13.6-7.8 19-2.1 8.4-4.1 12-6.6 12-.7 0-2.6-1.7-4.4-3.7zm-102-14c-2.9-6.5-6.8-15.2-8.7-19.3-5.4-12-10-23.9-12.2-32.2-1.1-4.2-3.8-11.4-6-16-5.3-11.2-7.2-18.3-7.3-27.4-.2-7.3 0-7.8 2.7-10.2 2.3-2 3.6-2.3 6.8-1.9 7.1 1 13.1 9.3 16.1 22.7.8 3.6 2.2 9.9 3.1 14 .9 4.1 3.6 11.8 6 17.1 5.8 12.7 8.9 25.1 12.7 51.4l1.2 8.7-2.7 2.4c-5 4.3-6 3.5-11.7-9.3zm53-11.6c-4.8-2.4-6.2-14.9-5-43.7.3-6.9-.1-10.3-2.3-18.2-3.5-12.9-5.7-27-5.7-36.5 0-13.4 2.9-19.6 9.7-20.9 6.9-1.3 10.6 2.6 14.7 15.6 4 12.4 4.9 24.3 3.6 46.1-.8 14.2-.8 22.7 0 32.9 1.1 13.1 1.1 14.1-.9 18.4-1.5 3.5-2.9 5-5.5 6.1-4.3 1.8-5.4 1.8-8.6.2z"/>
  <path fill="#3aa949" d="M656.7 400.4c-13.4-3.2-24.3-15-30.3-32.6-3.4-10.2-9-38.9-10.5-53.8-1.2-12.7-.7-27.7 1.3-36 .5-2.5 2.4-8.8 4-14 2.4-7.6 3.2-12.2 3.8-23 .4-7.4 1.5-16.2 2.3-19.5 1.5-5.8 1.5-6.2-.9-13.1-3-8.8-3-11 .1-17.2 3.3-6.6 3.2-8.2-1-13.2-5.5-6.6-4.5-13.2 2.9-19.8 4.6-4 9.5-5 13.5-2.6 5.4 3.2 6.4 8.8 4.5 25.4-2.1 19.2-1.7 38.5 1.2 52.2 1.2 5.7 12.2 4.7 18.4-1.7l3.5-3.6-.3-13c-.2-11.6 0-13.9 2.3-21 3.1-10 3.2-14.4 0-21.9-3.4-8-3.3-12.1.4-15.7l2.8-2.9-.1-14.9c-.1-13.7.1-15.4 2.1-19.2 6.1-11.4 17-11.2 22 .4 1.1 2.5 1.7 6.5 1.6 11.8 0 10-3 17.1-10.3 24.7-4.1 4.2-5 5.8-5 8.7 0 2-.9 7.2-2 11.6-2.5 10-2.5 11.2 0 17.5 1.6 4 2 7.4 2 15.8 0 12.1 1.4 15.9 6.9 18.1 2.6 1.2 3.5 1.1 6.3-.6 1.9-1 4.3-3.8 5.6-6.3 1.9-3.8 2.2-6 2.2-16.1 0-13.2.4-14.8 5.6-21.6l3.7-4.8-.8-7.5c-.5-4.1-.9-10.3-.9-13.7-.1-5.5.2-6.5 2.8-9.2 1.5-1.6 2.6-3.4 2.2-3.9-.3-.5-1-4-1.6-7.9-.9-5.6-.8-8.4.4-14.4 4.3-20.3 13.9-26.3 25-15.6 3.6 3.4 4.5 5.1 5.1 9 1 6.3-1.1 14.6-6.4 25.9-9.4 20.1-11.9 29.7-13 50.6-.9 16.2-1.3 17.8-6.6 27.2-4.7 8.4-3.2 10.4 10.1 13.6 5.4 1.3 10.7 2.4 11.6 2.4 3.1 0 4.9-5.6 5.8-17.4.7-11.5 1.4-13.6 5.7-19.4 2.5-3.3 2.5-3.7 1.8-13.4-.7-10.9.2-15.3 3.7-16.4 1.5-.4 1.8-1.1 1.4-2.7-.4-1.2-.9-4.5-1.3-7.3-1.6-14.5 9-29.1 22.1-30.2 4.8-.4 5.5-.2 7.4 2.3 1.9 2.4 2.2 4.1 2.2 12.1 0 10.9-2.3 18.5-8.5 27.8l-3.9 5.8 1.2 5.7c1.7 8.3 1.6 9-3.3 18.7-3.8 7.4-4.8 10.5-5.9 19-1.5 10.9-2.9 14.4-7.3 18.6-3.1 3-9.1 5.8-12.4 5.8-1.1 0-1.9.3-1.7.8 7.3 14.4 7.3 14.4 7.3 23.7-.1 5-.5 12.8-.9 17.5-.7 6.9-.5 9.2.7 12.3 1.9 4.4 3.5 4.6 7.6 1.2 4.4-3.7 6.6-7.8 11-20.3 4.2-11.9 9.2-21 13.8-25.3 7.3-6.8 16.2-10 21.8-7.9 10.2 3.9 7.4 18.6-8 41.1-8.8 12.9-13.5 21.1-16.2 28.6-2 5.5-2.3 8.3-2.3 20.1 0 20.5-2.9 29.4-12.6 38.9-10.1 10-23 13.5-68.3 18.8-14.8 1.7-22.1 3-23.9 4.1-3 2-11.6 4.4-15.2 4.3-1.4 0-5.1-.7-8.3-1.5z"/>
</svg>