<?xml version="1.0" encoding="utf-8"?>
<svg viewBox="100.4259 53.3628 421.6262 425.544" xmlns="http://www.w3.org/2000/svg">
    <path fill="#ed1c29" d="M 262.5 423.1 C 252.5 418.6 246.1 403.9 243.1 378 C 242.4 372.8 241.5 365 241 360.6 C 239.9 351.5 238 347.7 228.9 336.9 C 220.1 326.4 217.6 320.6 218.2 312 C 218.8 304.1 221.9 297.9 227.6 293.2 C 231.6 289.9 247.5 284.1 253.5 283.7 C 257.4 283.5 257.5 283.5 258 287.5 C 258.8 293.1 262 298 272.2 308.8 C 282.3 319.6 284.7 324.6 290.3 347.6 C 294.2 363.4 295.9 367 299.8 367 C 306.5 367 317.7 355.2 320.6 345.2 C 324.5 331.9 320.7 324.9 300.9 308.4 C 291.8 300.8 286.6 294.1 284.9 287.6 C 284.3 285.4 284 278.4 284.2 272 C 284.5 262.1 284.8 260 286.8 256.8 C 291 250 293.1 250 322.2 256.9 C 352.9 264.2 353.1 264.3 358.5 267.4 C 361.5 269.2 363.2 271.1 364.4 274 C 365.8 277.6 365.8 278.4 364.5 282.5 C 363.6 285 360.9 290.8 358.5 295.5 C 353.3 305.3 352.9 309.1 356.2 315.7 C 359.1 321.5 373.4 335.1 380.2 338.6 C 384.2 340.6 387 341.3 391.5 341.4 C 403.2 341.5 410.8 335.1 423 314.9 C 431.1 301.5 436.3 295.5 442.4 292.6 C 453.7 287.2 461.9 290.6 465 301.8 C 467.1 309.7 462.1 320.9 452.1 330.7 C 446.5 336.3 444.1 337.5 436 338.9 C 420.4 341.6 410.7 349.9 396 373.5 C 382.8 394.7 375.2 402 361.5 406.4 C 355.6 408.3 340.7 410 329.7 410 C 319 410 308.5 412.4 297.7 417.2 C 278.9 425.5 270.7 426.9 262.5 423.1 L 262.5 423.1 Z M 197.7 288.9 C 196.8 288.3 194.8 285.6 193.4 282.7 C 186.4 268.8 175.1 253.1 165 243.5 C 157.7 236.5 154.9 228.2 158.7 224.5 C 160.9 222.3 164.2 223 171.8 227.4 C 178.5 231.4 187.6 239.9 193.8 248.1 C 196.1 251.1 199.3 254.4 201 255.5 C 202.9 256.8 205.6 260.5 208.1 265.5 C 210.4 269.9 213.3 274.9 214.6 276.7 C 217.7 280.8 217.6 282.4 214.3 285 C 208.6 289.5 201.6 291.1 197.7 288.9 L 197.7 288.9 Z M 345 252.3 C 338.4 244.3 338.8 238.6 346.5 228.1 C 356.1 215.1 356.4 213.6 356.1 179.7 C 355.8 147.2 356.4 143.7 363 139.4 C 366.5 137.1 367.3 136.9 374.4 137.6 C 381.2 138.2 382.3 138.6 384.5 141.2 C 388 145.3 388.4 149.6 386.6 160.7 C 382.5 184.6 376.6 201.4 363.8 225 C 360.2 231.7 357.4 238.6 356 244 C 353.9 252.4 351.9 256 349.4 256 C 348.7 256 346.8 254.3 345 252.3 Z M 243 238.3 C 240.1 231.8 236.2 223.1 234.3 219 C 228.9 207 224.3 195.1 222.1 186.8 C 221 182.6 218.3 175.4 216.1 170.8 C 210.8 159.6 208.9 152.5 208.8 143.4 C 208.6 136.1 208.8 135.6 211.5 133.2 C 213.8 131.2 215.1 130.9 218.3 131.3 C 225.4 132.3 231.4 140.6 234.4 154 C 235.2 157.6 236.6 163.9 237.5 168 C 238.4 172.1 241.1 179.8 243.5 185.1 C 249.3 197.8 252.4 210.2 256.2 236.5 L 257.4 245.2 L 254.7 247.6 C 249.7 251.9 248.7 251.1 243 238.3 L 243 238.3 Z M 296 226.7 C 291.2 224.3 289.8 211.8 291 183 C 291.3 176.1 290.9 172.7 288.7 164.8 C 285.2 151.9 283 137.8 283 128.3 C 283 114.9 285.9 108.7 292.7 107.4 C 299.6 106.1 303.3 110 307.4 123 C 311.4 135.4 312.3 147.3 311 169.1 C 310.2 183.3 310.2 191.8 311 202 C 312.1 215.1 312.1 216.1 310.1 220.4 C 308.6 223.9 307.2 225.4 304.6 226.5 C 300.3 228.3 299.2 228.3 296 226.7 L 296 226.7 Z" style="transform-origin: 311.239px 266.135px;" transform="matrix(0.882947802544, -0.469472050667, 0.469472050667, 0.882947802544, 0.000002586796, -0.000059571725)"/>
</svg>