<?xml version="1.0" encoding="utf-8"?>
<svg viewBox="937.9045 114.4645 316.8734 284.8703" xmlns="http://www.w3.org/2000/svg">
    <path fill="#8065ad" d="M 1053.3 398.9 C 1052.1 398.5 1049.9 396.5 1048.3 394.4 C 1044.2 389 1040 385.2 1035.5 382.9 C 1026.2 378.1 1022.8 373.6 1019.3 361.5 C 1018.5 358.8 1014 348.6 1009.4 338.9 C 999.8 318.9 996.3 307.2 997.4 299.8 C 998.6 292 1001.3 289.1 1013.3 283 C 1019.3 279.9 1027.4 274.9 1031.3 271.7 C 1035.3 268.6 1041.9 263.3 1046 260 C 1055.7 252.2 1063.7 248 1068.6 248 C 1073.6 248 1075.1 249 1076.4 253.1 C 1078.4 259.1 1085.9 258.9 1100.5 252.3 C 1105.1 250.2 1110.7 248.5 1113.7 248.2 C 1122 247.5 1122.2 248.1 1122.2 277 C 1122.2 297.1 1122.5 301.5 1123.9 304.2 C 1127 310.4 1141.1 319.1 1151.5 321.3 C 1156.2 322.2 1157.8 322.2 1161.3 320.9 C 1166.5 319.1 1174.4 320 1177 322.7 C 1183 329.2 1182.4 339.1 1175.5 347.5 C 1168.4 356.2 1129.5 386.8 1122.8 388.9 C 1113.8 391.8 1102.3 384.5 1094.9 371 C 1087.7 357.9 1086.2 347.3 1090.4 338.4 C 1092.6 333.7 1098.2 328 1100.7 328 C 1102.5 328 1105 324.4 1105 321.8 C 1105 320.4 1104.3 317.3 1103.4 314.9 C 1102.3 311.7 1102.1 308.7 1102.5 303.5 C 1103.1 297.2 1103 296.3 1101.1 294.6 C 1099.3 292.9 1098.6 292.9 1094.6 294 C 1089.6 295.4 1087.5 294.9 1081.1 291 C 1075.1 287.4 1072.6 286.7 1068.5 287.4 C 1065.6 288 1064.3 289.3 1060.1 295.8 C 1057.3 300.1 1053.7 304.3 1052.1 305.3 C 1044 310.1 1044.1 312.7 1052.3 321.2 C 1057.9 326.8 1059 328.5 1060.9 335.1 C 1062.2 339.4 1065 345.2 1067.5 349 C 1073 357.2 1074 359.9 1074 366.4 C 1074 372.4 1070.1 385.3 1066.5 391.6 C 1063 397.6 1057.7 400.5 1053.3 398.9 Z M 1209.3 309.8 C 1208 309.2 1206.8 307.9 1206.5 306.9 C 1205.9 305 1207.5 301 1208.9 301 C 1209.3 301 1211.3 299.4 1213.3 297.5 C 1215.8 295 1217.5 292.1 1218.8 287.7 C 1220.5 282 1221 281.3 1225.2 279.2 C 1233.8 274.9 1249.2 275.3 1253.5 280 C 1255.9 282.6 1254.8 288.2 1251.2 291.9 C 1245.2 297.9 1231.6 305.5 1220.6 308.9 C 1213 311.3 1212.4 311.3 1209.3 309.8 Z M 979.2 268.2 C 978.3 266.6 975.8 263.8 973.7 262 C 970.4 259.2 969.9 258.1 970.2 255.4 C 970.5 252.8 970.2 252 968.5 251.6 C 965.2 250.7 956.5 242.9 956.8 241.1 C 957.6 237.5 966.3 230.8 968 232.7 C 968.4 233.1 969.8 236.2 971.1 239.5 C 974.1 247.2 975.4 248.7 981.3 251.2 C 986.6 253.5 988 255.3 988 260 C 988 263.8 984.2 271 982.3 271 C 981.6 271 980.2 269.7 979.2 268.2 Z M 952 235.3 C 948.8 234.1 943.6 228.2 940.9 222.5 C 937.7 215.8 936.9 205.9 939.3 202.5 C 942.6 198 955.6 204.2 961.4 213.1 C 964.5 217.8 965.5 222.3 964.6 227.4 C 964.1 230.2 963 231.5 959.6 233.5 C 955.2 236.1 954.6 236.2 952 235.3 Z M 1018.4 227.6 C 1016.2 225.7 1015.5 224.1 1014.9 219.4 C 1014.5 216.1 1013.9 212.4 1013.5 211.1 C 1012.7 208.8 1012.9 208.7 1015.8 209.3 C 1017.7 209.7 1019 209.5 1019 209 C 1019 205.4 1027 212.2 1028.9 217.3 C 1030.9 222.5 1027.7 230 1023.5 230 C 1022.2 230 1019.9 228.9 1018.4 227.6 Z M 1113.1 219.3 C 1111.4 213.4 1111.8 208.3 1114.1 203.7 C 1115.3 201.4 1116.7 199.2 1117.2 198.9 C 1117.7 198.6 1117.4 197.6 1116.5 196.7 C 1110.7 190.9 1110.4 176.7 1116.1 174.8 C 1116.7 174.6 1114.7 170.3 1111.6 165 C 1105.4 154.6 1104.8 151.3 1107.9 144.5 C 1109.8 140.2 1115.2 135 1117.6 135 C 1120.1 135 1124.6 137.8 1127.4 141 C 1132.8 147.5 1133.2 158.4 1128.2 168.2 C 1126.7 171.1 1124.5 173.9 1123.3 174.5 C 1121 175.5 1120.2 177 1121.8 177 C 1123.4 177 1125 182 1125 186.8 C 1125 189.4 1124.1 193.4 1123 195.8 C 1121.9 198.3 1121.5 200 1122.2 200 C 1122.9 200 1123.1 202.4 1122.7 207.5 C 1121.8 220.3 1115.5 227.9 1113.1 219.3 Z M 1069 217.8 C 1069 215.2 1064.2 206.4 1061 203.2 C 1058.2 200.2 1057.9 199.4 1058.5 196.2 C 1059.8 189.4 1064.5 185.2 1069.6 186.2 C 1072.1 186.7 1075.3 199.8 1074.5 207 C 1073.8 213.9 1072 219 1070.3 219 C 1069.6 219 1069 218.4 1069 217.8 Z M 1011.2 201.7 C 1007.9 196.5 1005 189.1 1005 186 C 1005 184 1003.8 182.1 1000.9 179.3 C 993.3 172.2 991.1 164.4 993 151.6 C 993.7 147.2 994.7 142.9 995.3 142.2 C 996.7 140.4 1000 140.7 1003.9 143.1 C 1013.4 148.9 1017.5 159.9 1014.5 171.4 C 1013 177.1 1013 177.3 1015.1 178.8 C 1016.9 180 1017.1 180.9 1016.5 185 C 1016 188.7 1016.2 190.4 1017.5 192.4 C 1019.9 196 1019.9 201.6 1017.4 203.5 C 1014.5 205.7 1013.4 205.3 1011.2 201.7 Z M 1056.7 177.3 C 1055.2 175.6 1053.8 170.6 1052.5 162.8 C 1052.2 160.7 1050.8 157.8 1049.5 156.2 C 1045.7 151.7 1045.1 149 1044.8 135.2 C 1044.5 118.8 1045.4 117 1055.3 114.6 C 1059.7 113.6 1063.5 118.2 1064.9 126.3 C 1067.5 141.1 1065 148.8 1056.7 151.9 C 1055.2 152.5 1054 153.4 1054 154 C 1054 155.3 1055.2 155.3 1058.4 154 C 1062.1 152.6 1065.5 154.3 1066.8 158 C 1068.3 162.2 1066.8 174.5 1064.4 177.1 C 1062.3 179.5 1058.8 179.6 1056.7 177.3 Z"/>
</svg>
