<?xml version="1.0" encoding="utf-8"?>
<svg viewBox="585.6873 597.9999 269.3127 281.7189" xmlns="http://www.w3.org/2000/svg">
    <path fill="#fee501" d="M725 879.4c-7-1.4-15.6-5-20.8-8.9-6.7-5-10.1-8.5-20.5-21.5-9.8-12.3-15.7-17.4-32.4-28.5-2.4-1.5-4.3-3.1-4.3-3.5 0-.4.9-1.5 2-2.5 1.7-1.5 3.1-1.7 9.7-1.1 4.3.3 9.8 1.1 12.3 1.6 16.4 3.4 24.6 2.7 26.4-2.2.7-2 .2-3.3-2.8-7.2-5.1-6.7-5-7 4.2-14.5 4.5-3.8 5.2-4.7 5.2-7.9 0-5.1-4.3-8.3-15.4-11.7-11.7-3.6-15.5-7.7-14.2-15 1.6-8.4 26.7-23.5 50.8-30.7 15.6-4.6 26.7-6 45.8-5.5 24 .5 41 5 52 13.8 4.9 3.7 9 12.1 9 18.1 0 5.3-1.3 8.9-4.7 13.1-3.6 4.4-3.2 10.3 1.2 15.9 4.3 5.7 8.9 13.5 9.9 16.8 1.9 6.2 2.4 19.6 1 27.5-1.4 8.5-6.3 21.9-10.3 28.5-.6.8-2.5 4.6-4.3 8.4-4.6 9.5-6.6 10.4-19.6 8.8-5.3-.7-12-1.2-14.8-1.2-6.4 0-24.5 2.6-30.4 4.4-12.7 3.9-28.8 6.2-35 5zm28.8-56.1c1.6-3.2 4.6-10.9 6.6-17.1 4.6-13.7 6.2-16.3 17.6-27.2 9.4-9 11.5-12.9 8.7-15.7-.9-.9-2.8-1.6-4.4-1.5-4.1.1-14.2 2.9-16.9 4.7-1.3.8-2.9 1.5-3.5 1.5-.7 0-2 .7-2.9 1.5-2.2 2-13.7 6.1-19.6 6.9-2.7.4-6 1.4-7.3 2.3-2.1 1.3-2.3 2-1.8 6.2.3 2.5 2.6 12.5 5.1 22.1 5 19 6.7 22 12.6 22 2.6 0 3.3-.7 5.8-5.7zm-146.3-4c-3.3-.7-9.8-3.6-12.3-5.4-4.2-3.2-6.5-7-8.3-13.7-1.6-6.1-1.6-6.8-.1-9.4 2.3-3.9 6.5-5.3 15.7-5.2 10.4.2 21.3 4.3 36.3 13.7 5.2 3.3 5.5 6.6 1.4 12.3-4.6 6.3-10.1 8.4-21.3 8.3-5.2-.1-10.3-.3-11.4-.6zm63-81.4c-6-3.5-14.5-15.3-14.5-20.4 0-4 3.6-7.5 7.6-7.5 3.4 0 10.3 4.2 14.8 8.9 2.3 2.4 3 4.2 3.4 8.4.4 4.6.1 5.7-1.9 8-2.8 3.1-6.6 4.1-9.4 2.6zm152.8-13.6c-2.1-.8-1.6-13 .6-18 2.3-4.9 5.1-6.1 8.5-3.6 6.8 4.9 6.6 12.3-.5 18.7-3.7 3.4-5.8 4.1-8.6 2.9zM707 704.8c-.7-1.8-2.8-6.4-4.6-10.2-5.1-10.4-4.5-16.6 1.7-16.6 4.7 0 13.8 12.3 13.9 18.8 0 2.8-2.7 9.4-4.3 10.4-2.8 1.8-5.5.8-6.7-2.4zm-58.3-2.9c-5.7-3-7.9-7.2-7.1-13.9.6-6.2 3.7-10 7.9-10 2.9 0 4.1 2 5.6 9.2.7 2.9 2.2 6.6 3.5 8.1 6 7.2-.5 11.6-9.9 6.6zm182.2-3.6c-1-1.6-2-6.4-2.4-11.3-.6-7.7-.5-8.7 1.4-11.2 1.2-1.4 3.5-2.9 5.1-3.3 1.6-.4 3.2-1 3.4-1.3.5-.8-1.6-9.4-3.2-13.2-3.9-9.2-3.2-20 1.6-25.2 3.7-4.1 10-4 13.5.2 3 3.5 4.7 10.7 4.7 19.4 0 7.8-3.9 16.2-8.5 18.6-1.7.8-3.2 1.6-3.4 1.7-.2.2.4 1.2 1.3 2.2 1.4 1.6 1.7 3 1.2 6.3-.4 2.4-.6 6.6-.6 9.3.1 6.1-2.7 9.4-8.7 10.2-3.4.4-4 .2-5.4-2.4zm-72.1 0c-4.3-4.9-5.2-11.5-2.9-21.1 1.4-5.8 3.8-8 7-6.2 6.1 3.2 4.8 26.6-1.5 28.7-.6.2-1.7-.4-2.6-1.4zm-128.8-18c-4.9-.9-12.9-11.1-17.3-22.1-2-5.1-1.5-9.9 1.5-13.7 5.8-7.4 22.5 1.8 29.1 15.8 3.2 7 2.1 11.7-4.2 17.5-3.4 3.2-4.2 3.4-9.1 2.5zm67.6-10.2c-2.2-.5-3.6-1.9-5.9-6.4-2.7-5-3.1-7-3.1-13.5l-.1-7.7-4.9-.6c-4.2-.4-5.4-1.1-8.2-4.5-5.6-6.6-8.6-13.7-9.2-21.5-.4-6.3-.2-7.2 1.8-9.4 2-2.1 3.3-2.5 8.1-2.5 3.2 0 6.9.4 8.3 1 4 1.5 8.6 6.1 11.4 11.5 3.1 5.9 3.6 16.2 1.3 23.3-1.3 3.9-1.3 4.4.6 6.5 4.5 5.1 7.3 16.8 5.3 21.8-.7 1.6-1.5 2.8-1.9 2.8-.3-.1-1.9-.4-3.5-.8zm53.1-6.2c-3.2-1.8-4.7-7.3-4.7-16.4v-8.6l-3.2-1.7c-8.6-4.5-14-13.7-14.6-24.9-.4-7.2-.4-7.3 3.1-10.8 2.9-2.9 4.2-3.5 7.9-3.5 9.6 0 19.9 10.3 21.4 21.4.6 4.2-1.3 9.9-4.8 14.9-1.1 1.4-1 2.3.6 5 3.6 6.1 7.3 14.2 7.9 17.5.6 2.9.3 3.4-3.3 5.7-4.2 2.7-7.4 3.1-10.3 1.4z"/>
</svg>